<?xml version="1.0" standalone="no"?>
<!DOCTYPE svg PUBLIC "-//W3C//DTD SVG 20010904//EN"
 "http://www.w3.org/TR/2001/REC-SVG-20010904/DTD/svg10.dtd">
<svg version="1.0" xmlns="http://www.w3.org/2000/svg"
 width="276.000000pt" height="276.000000pt" viewBox="0 0 276.000000 276.000000"
 preserveAspectRatio="xMidYMid meet">
<metadata>
Created by potrace 1.11, written by Peter Selinger 2001-2013
</metadata>
<g transform="translate(0.000000,276.000000) scale(0.100000,-0.100000)"
fill="#000000" stroke="none">
<path d="M547 2734 c-48 -13 -105 -34 -127 -46 -77 -44 -71 52 -68 -1238 2
-635 6 -1162 9 -1171 2 -9 19 -46 37 -82 67 -135 195 -197 408 -197 56 0 104
3 108 7 4 4 19 9 34 11 49 6 129 49 172 92 42 42 87 124 96 177 3 14 8 31 12
37 4 6 7 196 8 423 2 379 3 415 20 450 28 56 75 83 144 83 52 0 61 -3 89 -32
17 -17 34 -46 37 -65 3 -18 7 -216 8 -440 1 -225 4 -413 8 -419 4 -6 10 -24
13 -40 9 -45 10 -47 30 -88 27 -55 93 -120 151 -147 27 -13 54 -24 59 -24 6
-1 29 -7 53 -13 55 -16 229 -14 288 4 80 24 129 50 172 93 41 41 106 154 94
165 -2 3 0 12 6 19 13 15 12 1105 0 1142 -4 11 -14 49 -24 85 -23 89 -72 193
-127 267 -38 52 -77 88 -162 151 -5 4 -30 17 -55 29 -235 115 -571 94 -772
-48 -14 -11 -28 -19 -30 -19 -1 0 -3 80 -4 178 -1 216 -17 300 -84 431 -57
115 -176 201 -321 236 -90 21 -179 18 -282 -11z m1179 -842 c101 -29 190 -124
214 -231 16 -68 8 -194 -16 -246 -43 -94 -117 -160 -218 -194 l-50 -18 -28 60
c-47 99 -111 140 -223 142 -38 0 -77 -2 -85 -6 -8 -4 -34 -15 -58 -25 -66 -27
-126 -102 -150 -188 -3 -12 -6 -201 -8 -421 -3 -449 -9 -494 -67 -558 -55 -60
-88 -71 -224 -75 -188 -6 -266 27 -316 135 -22 48 -22 49 -25 810 l-2 763 34
14 c96 40 245 50 341 22 125 -37 200 -108 245 -233 29 -81 49 -83 86 -12 58
116 225 239 351 261 12 2 25 6 27 9 9 9 130 2 172 -9z"/>
</g>
</svg>
